<?xml version="1.0" encoding="UTF-8" standalone="no"?>
<!DOCTYPE svg PUBLIC "-//W3C//DTD SVG 1.1//EN" "http://www.w3.org/Graphics/SVG/1.1/DTD/svg11.dtd">
<svg xmlns="http://www.w3.org/2000/svg" version="1.1" viewBox="0.00 0.00 1091.00 1340.00">
<path fill="#efb293" d="
  M 116.31 0.00
  L 885.56 0.00
  C 901.70 2.30 914.07 14.30 919.55 29.01
  C 923.45 39.49 923.07 52.90 923.05 65.00
  Q 922.95 116.34 923.02 167.60
  A 0.40 0.40 0.0 0 0 923.42 168.00
  Q 986.97 168.00 1050.45 168.00
  Q 1058.12 168.00 1062.26 169.36
  C 1077.40 174.31 1090.22 192.67 1091.00 208.31
  L 1091.00 227.31
  C 1090.18 239.11 1090.00 251.13 1090.00 262.93
  Q 1089.99 749.69 1090.01 1236.44
  Q 1090.01 1249.89 1091.00 1270.06
  L 1091.00 1284.81
  Q 1089.85 1300.64 1088.72 1305.24
  C 1084.41 1322.89 1070.56 1337.34 1052.19 1340.00
  L 157.44 1340.00
  C 77.81 1334.77 13.74 1275.20 1.63 1196.43
  C 0.82 1191.12 0.70 1184.59 0.00 1178.69
  L 0.00 117.19
  C 0.71 110.35 1.16 103.15 2.94 96.71
  Q 14.93 53.60 49.60 26.28
  C 68.33 11.53 92.47 1.58 116.31 0.00
  Z
  M 120.53 85.57
  C 106.49 87.90 89.39 100.38 87.93 115.22
  Q 86.86 126.10 88.10 138.96
  C 88.46 142.64 89.26 145.41 91.18 148.28
  C 103.63 166.93 120.50 169.00 141.42 169.00
  Q 482.27 169.00 823.11 169.00
  C 827.36 169.00 831.90 168.16 836.32 167.93
  A 0.44 0.43 -1.4 0 0 836.74 167.50
  Q 836.77 138.68 836.73 110.07
  C 836.72 103.23 835.75 94.21 836.05 86.07
  Q 836.09 85.00 835.02 85.00
  Q 487.87 85.00 140.50 85.00
  Q 123.94 85.00 120.53 85.57
  Z
  M 139.01 253.00
  C 133.24 253.00 127.04 252.30 121.01 252.09
  C 108.50 251.65 99.31 249.70 88.88 244.00
  A 1.40 1.40 0.0 0 0 87.07 244.40
  C 85.45 246.59 84.00 248.32 84.00 251.24
  Q 84.00 707.72 84.00 1164.19
  C 84.00 1193.21 95.13 1219.73 117.56 1237.72
  C 130.42 1248.04 145.91 1253.99 162.26 1253.99
  Q 582.85 1254.04 1003.50 1253.98
  Q 1004.00 1253.98 1004.00 1253.49
  L 1004.00 253.51
  Q 1004.00 253.01 1003.50 253.01
  Q 571.22 252.97 139.01 253.00
  Z"
/>
<path fill="#efb293" d="
  M 670.02 756.51
  Q 669.95 811.13 670.01 865.76
  Q 670.03 883.89 669.80 885.72
  C 667.96 900.43 657.31 914.71 642.24 918.73
  Q 636.91 920.16 628.60 920.30
  C 597.29 920.81 585.12 897.85 585.84 869.34
  Q 585.99 863.12 585.99 863.02
  Q 586.01 629.02 586.00 395.01
  C 586.00 385.75 584.26 372.41 587.64 362.55
  C 592.01 349.81 602.98 339.46 615.92 335.84
  Q 622.57 333.98 634.85 334.66
  C 683.80 337.38 728.67 354.67 765.51 386.37
  C 805.31 420.60 831.90 471.21 836.86 523.53
  Q 837.54 530.72 837.65 543.51
  Q 838.21 608.45 837.66 712.25
  C 837.54 733.84 822.78 749.28 802.38 753.91
  Q 796.50 755.25 782.51 755.13
  C 745.44 754.82 707.59 753.82 670.60 755.90
  Q 670.03 755.93 670.02 756.51
  Z
  M 670.00 534.50
  Q 670.00 535.15 669.85 535.52
  Q 669.72 535.86 669.72 536.22
  L 670.08 669.51
  Q 670.08 669.91 670.48 669.91
  Q 711.99 670.44 753.47 668.93
  A 0.54 0.53 -1.1 0 0 753.99 668.40
  Q 754.04 613.85 753.97 559.24
  C 753.96 549.29 753.81 538.74 752.72 530.56
  C 746.52 484.30 716.19 442.00 670.54 428.11
  Q 670.02 427.95 670.02 428.50
  Q 669.97 481.56 670.00 534.50
  Z"
/>
<path fill="#efb293" d="
  M 420.38 662.25
  A 1.18 1.18 0.0 0 0 419.86 663.28
  C 420.47 675.46 419.04 688.62 419.03 699.42
  Q 418.98 771.66 419.01 843.90
  C 419.01 856.29 418.98 867.84 419.22 877.75
  Q 419.43 886.41 416.67 894.08
  C 411.40 908.70 394.31 922.15 378.35 922.09
  C 363.09 922.03 348.97 913.65 340.79 901.19
  C 333.99 890.83 335.99 878.51 335.99 866.81
  Q 336.01 779.74 336.00 692.67
  C 335.99 683.36 335.84 673.77 334.77 664.50
  C 334.62 663.20 332.64 661.13 331.32 660.21
  C 323.29 654.58 313.96 648.71 307.30 643.07
  C 283.70 623.06 267.74 592.72 259.65 563.45
  C 243.59 505.24 250.10 441.36 283.32 390.32
  C 300.31 364.22 329.18 340.93 360.74 336.86
  C 378.40 334.59 397.82 335.28 414.27 342.25
  C 467.84 364.97 496.76 422.22 501.52 477.60
  Q 502.09 484.24 502.06 497.59
  C 502.04 508.34 502.66 519.75 501.59 529.78
  C 496.54 577.20 475.28 622.89 435.92 651.41
  Q 428.20 657.00 420.38 662.25
  Z
  M 416.82 527.73
  C 420.97 502.45 419.06 476.98 409.88 453.20
  C 403.72 437.28 384.32 407.79 363.87 425.77
  Q 352.23 436.00 345.96 450.46
  Q 338.84 466.89 337.26 484.79
  C 336.89 489.00 336.01 492.93 336.13 497.09
  C 336.45 508.49 336.46 520.95 338.44 531.27
  Q 343.19 555.99 359.21 576.52
  Q 362.59 580.85 366.48 583.43
  Q 366.89 583.70 367.39 583.69
  L 389.85 582.86
  Q 390.26 582.84 390.54 582.54
  Q 411.67 559.02 416.82 527.73
  Z"
/>
<path fill="#efb293" d="
  M 837.90 1049.68
  C 837.35 1065.25 823.48 1082.25 807.91 1086.66
  Q 803.24 1087.98 792.83 1087.99
  Q 540.30 1088.02 287.75 1087.99
  Q 280.27 1087.99 271.84 1082.61
  C 255.13 1071.95 246.01 1051.25 253.76 1032.13
  C 260.53 1015.44 274.84 1003.95 293.31 1003.95
  Q 545.66 1003.99 798.00 1004.00
  Q 810.36 1004.00 821.45 1013.08
  Q 838.69 1027.18 837.90 1049.68
  Z"
/>
</svg>
